<?xml version="1.0" encoding="UTF-8"?>
<svg xmlns="http://www.w3.org/2000/svg" width="141.74" height="34.41" viewBox="0 0 141.74 35.41">
    <path
        d="M78.53,19.31l1.72-5.61H82.5l-2.71,8H77.34l-1.77-5.4-1.76,5.4H71.37l-2.71-8H71l1.7,5.58,1.79-5.58h2.27ZM87,13.49a3.9,3.9,0,0,1,1.58.3,3.61,3.61,0,0,1,1.22.86,4.11,4.11,0,0,1,.8,1.33,4.93,4.93,0,0,1,.28,1.7v.73H85.2a2.2,2.2,0,0,0,.27.74,1.91,1.91,0,0,0,.46.52,1.74,1.74,0,0,0,.61.3,2.83,2.83,0,0,0,.71.1,3.4,3.4,0,0,0,2-.77l1.26,1.38A4.21,4.21,0,0,1,89,21.6a5.39,5.39,0,0,1-1.87.3,4.62,4.62,0,0,1-1.68-.3,4.05,4.05,0,0,1-1.31-.85,3.94,3.94,0,0,1-.85-1.32,5,5,0,0,1,0-3.43,3.81,3.81,0,0,1,.83-1.34,3.67,3.67,0,0,1,1.27-.86A4.06,4.06,0,0,1,87,13.49Zm0,1.85a1.69,1.69,0,0,0-1.21.43,2.09,2.09,0,0,0-.57,1.17h3.53a2.08,2.08,0,0,0-.59-1.19A1.64,1.64,0,0,0,87,15.34Zm9.74-1.85a3.31,3.31,0,0,1,.63,0,2.83,2.83,0,0,1,.5.13l-.33,2.14a2.69,2.69,0,0,0-.61-.19,3.23,3.23,0,0,0-.69-.07,2,2,0,0,0-.68.12A1.39,1.39,0,0,0,95,16a1.71,1.71,0,0,0-.35.56,2.61,2.61,0,0,0-.12.79v4.35H92.39v-8h2.08v.88a2.25,2.25,0,0,1,1-.83A3,3,0,0,1,96.72,13.49Zm4.48,3.06H102l2.24-2.85h2.63l-3.15,3.76,3.18,4.23H104.2l-2.3-3.23h-.7v3.23H99.05V9.82h2.15Zm15.18-4.34h-4.67l0,2.31H113a5.32,5.32,0,0,1,1.77.27,3.65,3.65,0,0,1,1.26.74,3,3,0,0,1,.76,1.1A3.49,3.49,0,0,1,117,18a3.9,3.9,0,0,1-.33,1.65,3.53,3.53,0,0,1-.9,1.23,4,4,0,0,1-1.34.76,5.36,5.36,0,0,1-1.64.26,5.84,5.84,0,0,1-2.33-.46,4.89,4.89,0,0,1-1.76-1.22L110,18.65a2.5,2.5,0,0,0,.55.48,4.7,4.7,0,0,0,.69.39,4.36,4.36,0,0,0,.77.26,3.74,3.74,0,0,0,.81.1,2.64,2.64,0,0,0,.84-.14,1.75,1.75,0,0,0,.6-.36,1.47,1.47,0,0,0,.36-.53,1.82,1.82,0,0,0,.12-.65,1.67,1.67,0,0,0-.12-.62,1.3,1.3,0,0,0-.38-.52,2.19,2.19,0,0,0-.72-.35,3.93,3.93,0,0,0-1.13-.13h-2.75l.12-6.39h6.64ZM77,29.43v4.84H75.76V29.83a2.1,2.1,0,0,0-1.83-2.34,2,2,0,0,0-.42,0,2.29,2.29,0,0,0-2.39,2.19v4.6H69.89V26.46h1.22v1.11a3.07,3.07,0,0,1,2.63-1.26A3,3,0,0,1,77,29.05,2.38,2.38,0,0,1,77,29.43Zm9.28.91a3.53,3.53,0,0,1,0,.46H80a2.65,2.65,0,0,0,2.75,2.55h0a3.62,3.62,0,0,0,2.47-1l.66.84a4.36,4.36,0,0,1-3.21,1.22,3.82,3.82,0,0,1-4-3.69c0-.12,0-.25,0-.37a3.82,3.82,0,0,1,3.59-4h.28C84.72,26.31,86.25,28,86.27,30.34ZM80,29.8h5a2.46,2.46,0,0,0-2.45-2.4A2.55,2.55,0,0,0,80,29.8ZM96.87,33l2.33-6.53h1.28L97.6,34.27H96.2l-2.34-6.49-2.32,6.49H90.1l-2.9-7.81h1.31L90.84,33l2.36-6.52h1.38Zm14.67-5.49-.79.84a3,3,0,0,0-2.14-.91,2.91,2.91,0,0,0,0,5.81,3.09,3.09,0,0,0,2.16-.92l.77.84a3.79,3.79,0,0,1-2.9,1.23,4.06,4.06,0,0,1,0-8.12A3.79,3.79,0,0,1,111.54,27.5Zm6.82-1-.29,1.21a3,3,0,0,0-1.36-.31,2.16,2.16,0,0,0-2.11,2.21c0,.08,0,.15,0,.22v4.34h-1.23v-7.8h1.22v1.1a2.75,2.75,0,0,1,2.32-1.26A3.36,3.36,0,0,1,118.36,26.54Zm8.53,7.67h-1.22V33.07a3.46,3.46,0,0,1-2.85,1.32,4.06,4.06,0,1,1,0-8.12,3.47,3.47,0,0,1,2.85,1.32V26.43h1.22Zm-6.69-3.88a2.84,2.84,0,1,0,0-.13Zm14.27-2.79h-3.1v6.67h-1.24V27.54h-1.78V26.43h1.78V25.1c0-1.67.75-2.89,2.6-2.89a4,4,0,0,1,2.13.59l-.44,1a3.26,3.26,0,0,0-1.61-.46c-1,0-1.44.64-1.44,1.73V26.4h3.1Zm6.87,0H138v3.94c0,1.22.64,1.76,1.55,1.76a2.84,2.84,0,0,0,1.64-.56l.58.94a3.81,3.81,0,0,1-2.32.77c-1.68,0-2.68-.92-2.68-2.88v-4H135V26.43h1.7V24H138v2.48h3.37Zm-107-13.33a.56.56,0,0,0-.56-.55H28a.56.56,0,0,0-.56.55V26.83a.56.56,0,0,1-.55.56H21.14a.56.56,0,0,1-.56-.56h0V14.26A.56.56,0,0,0,20,13.7H14.25a.56.56,0,0,0-.55.56V26.83a.56.56,0,0,1-.56.56H7.44a.56.56,0,0,1-.56-.56h0V14.26a.55.55,0,0,0-.54-.56H.56a.56.56,0,0,0-.56.56V33.72a.56.56,0,0,0,.56.55H33.79a.55.55,0,0,0,.55-.55Zm6.86,0V20a.54.54,0,0,0,.53.55H54.4a.56.56,0,0,1,.56.56v5.69a.56.56,0,0,1-.56.56H41.78a.55.55,0,0,0-.55.55h0v5.77a.55.55,0,0,0,.55.55h19.5a.56.56,0,0,0,.56-.55V14.26a.56.56,0,0,0-.56-.56H41.78a.55.55,0,0,0-.55.55h0M28.18,0H61.11a.72.72,0,0,1,.72.72V6.16a.72.72,0,0,1-.72.72H28.18a.72.72,0,0,1-.72-.72V.72A.72.72,0,0,1,28.18,0Z"></path>
</svg> 